<?xml version="1.0" standalone="no"?>
<!DOCTYPE svg PUBLIC "-//W3C//DTD SVG 20010904//EN"
 "http://www.w3.org/TR/2001/REC-SVG-20010904/DTD/svg10.dtd">
<svg version="1.0" xmlns="http://www.w3.org/2000/svg"
 width="140.000000pt" height="140.000000pt" viewBox="0 0 140.000000 140.000000"
 preserveAspectRatio="xMidYMid meet">
<metadata>
Created by potrace 1.11, written by Peter Selinger 2001-2013
</metadata>
<g transform="translate(0.000000,140.000000) scale(0.100000,-0.100000)"
fill="#000000" stroke="none">
<path d="M532 1380 c-253 -66 -445 -258 -511 -511 -27 -101 -23 -275 9 -373
66 -207 217 -371 415 -447 87 -34 106 -38 218 -45 363 -24 685 245 732 609 l6
47 -71 0 -71 0 3 27 c3 26 4 26 72 25 l69 -1 -7 67 c-18 174 -114 351 -251
461 -81 65 -135 95 -230 127 -107 36 -273 42 -383 14z"/>
</g>
</svg>
